#N canvas 365 171 522 513 10;
#X floatatom 52 43 5 0 0 0 - - -;
#X obj 52 64 phasor~;
#X obj 135 246 >~;
#X obj 52 244 <~;
#X floatatom 210 28 5 0 0 0 - - -;
#X obj 210 49 pack f 20;
#X obj 210 71 line~;
#X obj 37 270 *~;
#X obj 120 270 *~;
#X obj 135 120 -~;
#X obj 120 66 sig~ 1;
#X obj 120 88 -~;
#X obj 120 151 -~;
#X obj 37 209 /~;
#X obj 120 193 /~;
#X obj 37 322 +~;
#X obj 37 344 *~ 2;
#X obj 37 366 -~ 1;
#X obj 37 458 *~;
#X obj 37 483 dac~;
#X obj 55 392 hsl 128 15 0 1 0 0 empty empty empty -2 -8 0 10 -262144
-1 -1 0 1;
#X obj 52 412 pack f 20;
#X obj 52 434 line~;
#X text 208 13 breakpoint;
#X connect 0 0 1 0;
#X connect 1 0 2 0;
#X connect 1 0 3 0;
#X connect 1 0 9 0;
#X connect 1 0 13 0;
#X connect 2 0 8 1;
#X connect 3 0 7 1;
#X connect 4 0 5 0;
#X connect 5 0 6 0;
#X connect 6 0 2 1;
#X connect 6 0 3 1;
#X connect 6 0 9 1;
#X connect 6 0 11 1;
#X connect 6 0 13 1;
#X connect 7 0 15 0;
#X connect 8 0 15 1;
#X connect 9 0 12 1;
#X connect 10 0 11 0;
#X connect 11 0 12 0;
#X connect 11 0 14 1;
#X connect 12 0 14 0;
#X connect 13 0 7 0;
#X connect 14 0 8 0;
#X connect 15 0 16 0;
#X connect 16 0 17 0;
#X connect 17 0 18 0;
#X connect 18 0 19 0;
#X connect 18 0 19 1;
#X connect 20 0 21 0;
#X connect 21 0 22 0;
#X connect 22 0 18 1;
