#N canvas 122 82 555 527 10;
#N canvas 0 22 450 278 (subpatch) 0;
#X array powSine 512 float 2;
#X coords 0 1 511 -1 200 140 1;
#X restore 326 309 graph;
#X obj 107 444 tgl 15 0 empty empty empty 17 7 0 10 -262144 -1 -1 0
1;
#X obj 107 464 metro 100;
#X obj 47 492 dac~;
#X floatatom 47 12 5 0 0 0 - - -;
#X floatatom 68 210 5 0 0 0 - - -;
#X obj 47 275 pow~;
#X obj 47 329 *~;
#X obj 139 226 *~ 2;
#X obj 139 248 -~ 1;
#X obj 47 131 *~ 0.5;
#X obj 47 153 +~ 0.5;
#X obj 47 109 cos~;
#X obj 47 33 phasor~;
#X obj 47 60 *~ 2;
#X obj 139 204 >~ 0.5;
#X obj 68 231 pack f 20;
#X obj 68 253 line~;
#X text 171 232 half way multiply by -1 and the other half by 1;
#X text 89 140 scale and offset so you don't get zero values from [pow~]
;
#X text 71 329 invert direction on every period;
#X text 77 59 make two cycles for each sign control period;
#X text 183 200 sign control;
#X obj 47 82 +~ 0.5;
#X obj 107 492 tabwrite~ powSine;
#X obj 47 451 *~;
#X obj 65 356 hsl 128 15 0 1 0 0 empty empty empty -2 -8 0 10 -262144
-1 -1 0 1;
#X obj 62 376 pow 4;
#X obj 62 398 pack f 20;
#X obj 62 420 line~;
#X connect 1 0 2 0;
#X connect 2 0 24 0;
#X connect 4 0 13 0;
#X connect 5 0 16 0;
#X connect 6 0 7 0;
#X connect 7 0 25 0;
#X connect 8 0 9 0;
#X connect 9 0 7 1;
#X connect 10 0 11 0;
#X connect 11 0 6 0;
#X connect 12 0 10 0;
#X connect 13 0 14 0;
#X connect 13 0 15 0;
#X connect 14 0 23 0;
#X connect 15 0 8 0;
#X connect 16 0 17 0;
#X connect 17 0 6 1;
#X connect 23 0 12 0;
#X connect 25 0 3 0;
#X connect 25 0 3 1;
#X connect 25 0 24 0;
#X connect 26 0 27 0;
#X connect 27 0 28 0;
#X connect 28 0 29 0;
#X connect 29 0 25 1;
