#N canvas 688 91 464 487 10;
#X floatatom 47 36 5 0 0 0 - - -;
#X obj 47 57 phasor~;
#X obj 138 101 noise~;
#X obj 138 123 samphold~;
#X obj 172 181 samphold~;
#X obj 172 159 z~ 1;
#X obj 138 214 -~;
#X obj 138 236 -~ 1;
#X obj 123 259 *~;
#X obj 47 164 +~;
#X obj 47 276 +~;
#X obj 47 378 *~;
#X obj 47 406 dac~;
#X obj 65 314 hsl 128 15 0 1 0 0 empty empty empty -2 -8 0 10 -262144
-1 -1 0 1;
#X obj 62 334 pack f 20;
#X obj 62 356 line~;
#X connect 0 0 1 0;
#X connect 1 0 3 1;
#X connect 1 0 4 1;
#X connect 1 0 8 0;
#X connect 1 0 9 0;
#X connect 2 0 3 0;
#X connect 3 0 5 0;
#X connect 3 0 6 0;
#X connect 4 0 6 1;
#X connect 4 0 9 1;
#X connect 5 0 4 0;
#X connect 6 0 7 0;
#X connect 7 0 8 1;
#X connect 8 0 10 1;
#X connect 9 0 10 0;
#X connect 10 0 11 0;
#X connect 11 0 12 0;
#X connect 11 0 12 1;
#X connect 13 0 14 0;
#X connect 14 0 15 0;
#X connect 15 0 11 1;
