#N canvas 649 104 431 328 10;
#X obj 66 138 line 0 5;
#X obj 66 219 +;
#X floatatom 66 241 5 0 0 0 - - -;
#X obj 66 160 t f f;
#X obj 93 202 *;
#X obj 188 133 -;
#X obj 188 155 - 1;
#X floatatom 161 36 5 0 0 0 - - -;
#X obj 203 87 f;
#X obj 66 180 +;
#X obj 161 57 t f f b;
#X obj 203 109 t f f;
#X obj 161 110 t b f;
#X msg 66 116 0 \, 1 5000;
#X text 195 35 give value;
#X text 229 86 hold previous value;
#X text 213 139 (current value - previous) - 1;
#X text 89 220 ramp from previous to current;
#X text 90 178 ramp from previous to previous + 1;
#X text 119 204 ramp from 0 to ((current - previous) - 1);
#X connect 0 0 3 0;
#X connect 1 0 2 0;
#X connect 3 0 9 0;
#X connect 3 1 4 0;
#X connect 4 0 1 1;
#X connect 5 0 6 0;
#X connect 6 0 4 1;
#X connect 7 0 10 0;
#X connect 8 0 11 0;
#X connect 9 0 1 0;
#X connect 10 0 12 0;
#X connect 10 1 8 1;
#X connect 10 2 8 0;
#X connect 11 0 5 1;
#X connect 11 1 9 1;
#X connect 12 0 13 0;
#X connect 12 1 5 0;
#X connect 13 0 0 0;
