#N canvas 674 23 469 747 10;
#X floatatom 169 16 5 0 0 0 - - -;
#X obj 169 37 phasor~;
#X obj 252 219 >~;
#X obj 169 217 <~;
#X floatatom 327 1 5 0 0 0 - - -;
#X obj 327 22 pack f 20;
#X obj 327 44 line~;
#X obj 154 243 *~;
#X obj 237 243 *~;
#X obj 252 93 -~;
#X obj 237 39 sig~ 1;
#X obj 237 61 -~;
#X obj 237 124 -~;
#X obj 154 182 /~;
#X obj 237 166 /~;
#X obj 154 285 +~;
#X floatatom 104 453 5 0 0 2 rise_pow - -;
#X obj 104 474 pack f 20;
#X obj 104 496 line~;
#X obj 104 518 *~;
#X floatatom 167 452 5 0 0 2 fall_pow - -;
#X obj 167 473 pack f 20;
#X obj 167 495 line~;
#X obj 167 517 *~;
#X obj 104 540 +~;
#X obj 22 557 pow~;
#X obj 37 149 *~ 0.5;
#X obj 37 172 +~ 0.5;
#X obj 22 226 cos~;
#X obj 22 78 /~;
#X obj 22 100 *~ 0.5;
#X obj 22 122 *~;
#X obj 22 248 *~ 0.5;
#X obj 22 270 +~ 0.5;
#X obj 40 324 hsl 128 15 0 1 0 0 empty empty empty -2 -8 0 10 -262144
-1 -1 0 1;
#X obj 37 344 t f f;
#X obj 37 366 * -1;
#X obj 37 388 + 1;
#X obj 37 410 pack f 20;
#X obj 37 432 line~;
#X obj 22 453 *~;
#X obj 107 361 pack f 20;
#X obj 107 383 line~;
#X obj 107 405 *~;
#X obj 22 475 +~;
#X obj 22 579 *~ 2;
#X obj 22 601 -~ 1;
#X obj 22 692 *~;
#X obj 22 714 dac~;
#X obj 40 626 hsl 128 15 0 1 0 0 empty empty empty -2 -8 0 10 -262144
-1 -1 0 1;
#X obj 37 646 pack f 20;
#X obj 37 668 line~;
#X obj 37 194 *~;
#X connect 0 0 1 0;
#X connect 1 0 2 0;
#X connect 1 0 3 0;
#X connect 1 0 9 0;
#X connect 1 0 13 0;
#X connect 2 0 8 1;
#X connect 2 0 23 1;
#X connect 2 0 31 1;
#X connect 3 0 7 1;
#X connect 3 0 19 1;
#X connect 3 0 52 1;
#X connect 4 0 5 0;
#X connect 5 0 6 0;
#X connect 6 0 2 1;
#X connect 6 0 3 1;
#X connect 6 0 9 1;
#X connect 6 0 11 1;
#X connect 6 0 13 1;
#X connect 7 0 15 0;
#X connect 8 0 15 1;
#X connect 9 0 12 1;
#X connect 9 0 29 0;
#X connect 10 0 11 0;
#X connect 11 0 12 0;
#X connect 11 0 14 1;
#X connect 11 0 29 1;
#X connect 12 0 14 0;
#X connect 13 0 7 0;
#X connect 13 0 26 0;
#X connect 14 0 8 0;
#X connect 15 0 43 1;
#X connect 16 0 17 0;
#X connect 17 0 18 0;
#X connect 18 0 19 0;
#X connect 19 0 24 0;
#X connect 20 0 21 0;
#X connect 21 0 22 0;
#X connect 22 0 23 0;
#X connect 23 0 24 1;
#X connect 24 0 25 1;
#X connect 25 0 45 0;
#X connect 26 0 27 0;
#X connect 27 0 52 0;
#X connect 28 0 32 0;
#X connect 29 0 30 0;
#X connect 30 0 31 0;
#X connect 31 0 28 0;
#X connect 32 0 33 0;
#X connect 33 0 40 0;
#X connect 34 0 35 0;
#X connect 35 0 36 0;
#X connect 35 1 41 0;
#X connect 36 0 37 0;
#X connect 37 0 38 0;
#X connect 38 0 39 0;
#X connect 39 0 40 1;
#X connect 40 0 44 0;
#X connect 41 0 42 0;
#X connect 42 0 43 0;
#X connect 43 0 44 1;
#X connect 44 0 25 0;
#X connect 45 0 46 0;
#X connect 46 0 47 0;
#X connect 47 0 48 0;
#X connect 47 0 48 1;
#X connect 49 0 50 0;
#X connect 50 0 51 0;
#X connect 51 0 47 1;
#X connect 52 0 28 0;
